<mxfile host="app.diagrams.net" modified="2023-11-16T03:50:49.571Z" agent="Mozilla/5.0 (Windows NT 10.0; Win64; x64) AppleWebKit/537.36 (KHTML, like Gecko) Chrome/119.0.0.0 Safari/537.36" etag="YyoAHLXWGAYZDw8JAc3I" version="22.1.2" type="device">
  <diagram name="Page-1" id="6gwBCCVL0bwg8STET9T3">
    <mxGraphModel dx="1134" dy="617" grid="1" gridSize="10" guides="1" tooltips="1" connect="1" arrows="1" fold="1" page="1" pageScale="1" pageWidth="850" pageHeight="1100" math="0" shadow="0">
      <root>
        <mxCell id="0" />
        <mxCell id="1" parent="0" />
        <mxCell id="nGg8Ksaf8CgA7mFmGYZu-3" value="" style="edgeStyle=orthogonalEdgeStyle;rounded=0;orthogonalLoop=1;jettySize=auto;html=1;" edge="1" parent="1" source="nGg8Ksaf8CgA7mFmGYZu-1" target="nGg8Ksaf8CgA7mFmGYZu-2">
          <mxGeometry relative="1" as="geometry" />
        </mxCell>
        <mxCell id="nGg8Ksaf8CgA7mFmGYZu-1" value="start" style="ellipse;whiteSpace=wrap;html=1;" vertex="1" parent="1">
          <mxGeometry x="340" y="190" width="120" height="80" as="geometry" />
        </mxCell>
        <mxCell id="nGg8Ksaf8CgA7mFmGYZu-5" value="" style="edgeStyle=orthogonalEdgeStyle;rounded=0;orthogonalLoop=1;jettySize=auto;html=1;" edge="1" parent="1" source="nGg8Ksaf8CgA7mFmGYZu-2">
          <mxGeometry relative="1" as="geometry">
            <mxPoint x="400" y="420" as="targetPoint" />
          </mxGeometry>
        </mxCell>
        <mxCell id="nGg8Ksaf8CgA7mFmGYZu-7" value="" style="edgeStyle=orthogonalEdgeStyle;rounded=0;orthogonalLoop=1;jettySize=auto;html=1;" edge="1" parent="1" source="nGg8Ksaf8CgA7mFmGYZu-2" target="nGg8Ksaf8CgA7mFmGYZu-6">
          <mxGeometry relative="1" as="geometry" />
        </mxCell>
        <mxCell id="nGg8Ksaf8CgA7mFmGYZu-2" value="nhập number= 567" style="shape=parallelogram;perimeter=parallelogramPerimeter;whiteSpace=wrap;html=1;fixedSize=1;" vertex="1" parent="1">
          <mxGeometry x="340" y="320" width="120" height="60" as="geometry" />
        </mxCell>
        <mxCell id="nGg8Ksaf8CgA7mFmGYZu-14" value="" style="edgeStyle=orthogonalEdgeStyle;rounded=0;orthogonalLoop=1;jettySize=auto;html=1;" edge="1" parent="1" source="nGg8Ksaf8CgA7mFmGYZu-6">
          <mxGeometry relative="1" as="geometry">
            <mxPoint x="585" y="684" as="targetPoint" />
          </mxGeometry>
        </mxCell>
        <mxCell id="nGg8Ksaf8CgA7mFmGYZu-6" value="&amp;nbsp;number&amp;lt;=0" style="rhombus;whiteSpace=wrap;html=1;" vertex="1" parent="1">
          <mxGeometry x="510" y="310" width="150" height="80" as="geometry" />
        </mxCell>
        <mxCell id="nGg8Ksaf8CgA7mFmGYZu-10" value="" style="edgeStyle=orthogonalEdgeStyle;rounded=0;orthogonalLoop=1;jettySize=auto;html=1;" edge="1" parent="1" source="nGg8Ksaf8CgA7mFmGYZu-8" target="nGg8Ksaf8CgA7mFmGYZu-9">
          <mxGeometry relative="1" as="geometry" />
        </mxCell>
        <mxCell id="nGg8Ksaf8CgA7mFmGYZu-8" value="number&amp;gt;0" style="rhombus;whiteSpace=wrap;html=1;" vertex="1" parent="1">
          <mxGeometry x="325" y="420" width="150" height="80" as="geometry" />
        </mxCell>
        <mxCell id="nGg8Ksaf8CgA7mFmGYZu-16" value="" style="edgeStyle=orthogonalEdgeStyle;rounded=0;orthogonalLoop=1;jettySize=auto;html=1;" edge="1" parent="1" source="nGg8Ksaf8CgA7mFmGYZu-9" target="nGg8Ksaf8CgA7mFmGYZu-11">
          <mxGeometry relative="1" as="geometry" />
        </mxCell>
        <mxCell id="nGg8Ksaf8CgA7mFmGYZu-9" value="reverse number&lt;br&gt;thành 765" style="rounded=0;whiteSpace=wrap;html=1;" vertex="1" parent="1">
          <mxGeometry x="340" y="530" width="120" height="60" as="geometry" />
        </mxCell>
        <mxCell id="nGg8Ksaf8CgA7mFmGYZu-11" value="end" style="ellipse;whiteSpace=wrap;html=1;" vertex="1" parent="1">
          <mxGeometry x="340" y="630" width="120" height="80" as="geometry" />
        </mxCell>
        <mxCell id="nGg8Ksaf8CgA7mFmGYZu-12" value="true" style="text;html=1;align=center;verticalAlign=middle;resizable=0;points=[];autosize=1;strokeColor=none;fillColor=none;" vertex="1" parent="1">
          <mxGeometry x="400" y="498" width="40" height="30" as="geometry" />
        </mxCell>
        <mxCell id="nGg8Ksaf8CgA7mFmGYZu-15" value="" style="endArrow=classic;html=1;rounded=0;entryX=1.006;entryY=0.667;entryDx=0;entryDy=0;entryPerimeter=0;" edge="1" parent="1" target="nGg8Ksaf8CgA7mFmGYZu-11">
          <mxGeometry width="50" height="50" relative="1" as="geometry">
            <mxPoint x="580" y="680" as="sourcePoint" />
            <mxPoint x="430" y="530" as="targetPoint" />
          </mxGeometry>
        </mxCell>
        <mxCell id="nGg8Ksaf8CgA7mFmGYZu-20" value="" style="edgeStyle=orthogonalEdgeStyle;rounded=0;orthogonalLoop=1;jettySize=auto;html=1;" edge="1" parent="1" source="nGg8Ksaf8CgA7mFmGYZu-17" target="nGg8Ksaf8CgA7mFmGYZu-19">
          <mxGeometry relative="1" as="geometry" />
        </mxCell>
        <mxCell id="nGg8Ksaf8CgA7mFmGYZu-17" value="start" style="ellipse;whiteSpace=wrap;html=1;" vertex="1" parent="1">
          <mxGeometry x="810" y="220" width="120" height="80" as="geometry" />
        </mxCell>
        <mxCell id="nGg8Ksaf8CgA7mFmGYZu-18" value="true&lt;br&gt;" style="text;html=1;align=center;verticalAlign=middle;resizable=0;points=[];autosize=1;strokeColor=none;fillColor=none;" vertex="1" parent="1">
          <mxGeometry x="580" y="468" width="40" height="30" as="geometry" />
        </mxCell>
        <mxCell id="nGg8Ksaf8CgA7mFmGYZu-32" value="" style="edgeStyle=orthogonalEdgeStyle;rounded=0;orthogonalLoop=1;jettySize=auto;html=1;entryX=0.5;entryY=0;entryDx=0;entryDy=0;" edge="1" parent="1" source="nGg8Ksaf8CgA7mFmGYZu-19" target="nGg8Ksaf8CgA7mFmGYZu-22">
          <mxGeometry relative="1" as="geometry">
            <mxPoint x="1010" y="365" as="targetPoint" />
          </mxGeometry>
        </mxCell>
        <mxCell id="nGg8Ksaf8CgA7mFmGYZu-34" value="" style="edgeStyle=orthogonalEdgeStyle;rounded=0;orthogonalLoop=1;jettySize=auto;html=1;" edge="1" parent="1" source="nGg8Ksaf8CgA7mFmGYZu-19" target="nGg8Ksaf8CgA7mFmGYZu-23">
          <mxGeometry relative="1" as="geometry">
            <mxPoint x="1165" y="365" as="targetPoint" />
          </mxGeometry>
        </mxCell>
        <mxCell id="nGg8Ksaf8CgA7mFmGYZu-36" value="" style="edgeStyle=orthogonalEdgeStyle;rounded=0;orthogonalLoop=1;jettySize=auto;html=1;entryX=0.5;entryY=0;entryDx=0;entryDy=0;" edge="1" parent="1" source="nGg8Ksaf8CgA7mFmGYZu-19" target="nGg8Ksaf8CgA7mFmGYZu-24">
          <mxGeometry relative="1" as="geometry">
            <mxPoint x="1310" y="365" as="targetPoint" />
          </mxGeometry>
        </mxCell>
        <mxCell id="nGg8Ksaf8CgA7mFmGYZu-37" value="" style="edgeStyle=orthogonalEdgeStyle;rounded=0;orthogonalLoop=1;jettySize=auto;html=1;" edge="1" parent="1" source="nGg8Ksaf8CgA7mFmGYZu-19" target="nGg8Ksaf8CgA7mFmGYZu-21">
          <mxGeometry relative="1" as="geometry" />
        </mxCell>
        <mxCell id="nGg8Ksaf8CgA7mFmGYZu-44" value="" style="edgeStyle=orthogonalEdgeStyle;rounded=0;orthogonalLoop=1;jettySize=auto;html=1;entryX=0.5;entryY=0;entryDx=0;entryDy=0;" edge="1" parent="1" source="nGg8Ksaf8CgA7mFmGYZu-19" target="nGg8Ksaf8CgA7mFmGYZu-42">
          <mxGeometry relative="1" as="geometry">
            <mxPoint x="1470" y="365" as="targetPoint" />
          </mxGeometry>
        </mxCell>
        <mxCell id="nGg8Ksaf8CgA7mFmGYZu-19" value="nhập a,b" style="shape=parallelogram;perimeter=parallelogramPerimeter;whiteSpace=wrap;html=1;fixedSize=1;" vertex="1" parent="1">
          <mxGeometry x="810" y="340" width="120" height="50" as="geometry" />
        </mxCell>
        <mxCell id="nGg8Ksaf8CgA7mFmGYZu-38" value="" style="edgeStyle=orthogonalEdgeStyle;rounded=0;orthogonalLoop=1;jettySize=auto;html=1;" edge="1" parent="1" source="nGg8Ksaf8CgA7mFmGYZu-21" target="nGg8Ksaf8CgA7mFmGYZu-27">
          <mxGeometry relative="1" as="geometry" />
        </mxCell>
        <mxCell id="nGg8Ksaf8CgA7mFmGYZu-21" value="nhập +" style="rhombus;whiteSpace=wrap;html=1;" vertex="1" parent="1">
          <mxGeometry x="810" y="420" width="120" height="80" as="geometry" />
        </mxCell>
        <mxCell id="nGg8Ksaf8CgA7mFmGYZu-39" value="" style="edgeStyle=orthogonalEdgeStyle;rounded=0;orthogonalLoop=1;jettySize=auto;html=1;" edge="1" parent="1" source="nGg8Ksaf8CgA7mFmGYZu-22" target="nGg8Ksaf8CgA7mFmGYZu-28">
          <mxGeometry relative="1" as="geometry" />
        </mxCell>
        <mxCell id="nGg8Ksaf8CgA7mFmGYZu-22" value="nhập -" style="rhombus;whiteSpace=wrap;html=1;" vertex="1" parent="1">
          <mxGeometry x="960" y="418" width="110" height="80" as="geometry" />
        </mxCell>
        <mxCell id="nGg8Ksaf8CgA7mFmGYZu-40" value="" style="edgeStyle=orthogonalEdgeStyle;rounded=0;orthogonalLoop=1;jettySize=auto;html=1;" edge="1" parent="1" source="nGg8Ksaf8CgA7mFmGYZu-23" target="nGg8Ksaf8CgA7mFmGYZu-29">
          <mxGeometry relative="1" as="geometry" />
        </mxCell>
        <mxCell id="nGg8Ksaf8CgA7mFmGYZu-23" value="nhập *" style="rhombus;whiteSpace=wrap;html=1;" vertex="1" parent="1">
          <mxGeometry x="1100" y="420" width="110" height="80" as="geometry" />
        </mxCell>
        <mxCell id="nGg8Ksaf8CgA7mFmGYZu-41" value="" style="edgeStyle=orthogonalEdgeStyle;rounded=0;orthogonalLoop=1;jettySize=auto;html=1;" edge="1" parent="1" source="nGg8Ksaf8CgA7mFmGYZu-24" target="nGg8Ksaf8CgA7mFmGYZu-30">
          <mxGeometry relative="1" as="geometry" />
        </mxCell>
        <mxCell id="nGg8Ksaf8CgA7mFmGYZu-24" value="nhập /" style="rhombus;whiteSpace=wrap;html=1;" vertex="1" parent="1">
          <mxGeometry x="1250" y="418" width="100" height="80" as="geometry" />
        </mxCell>
        <mxCell id="nGg8Ksaf8CgA7mFmGYZu-46" value="" style="edgeStyle=orthogonalEdgeStyle;rounded=0;orthogonalLoop=1;jettySize=auto;html=1;" edge="1" parent="1" source="nGg8Ksaf8CgA7mFmGYZu-27" target="nGg8Ksaf8CgA7mFmGYZu-45">
          <mxGeometry relative="1" as="geometry" />
        </mxCell>
        <mxCell id="nGg8Ksaf8CgA7mFmGYZu-27" value="kết quả = a+b" style="rounded=0;whiteSpace=wrap;html=1;" vertex="1" parent="1">
          <mxGeometry x="810" y="540" width="120" height="60" as="geometry" />
        </mxCell>
        <mxCell id="nGg8Ksaf8CgA7mFmGYZu-47" value="" style="edgeStyle=orthogonalEdgeStyle;rounded=0;orthogonalLoop=1;jettySize=auto;html=1;" edge="1" parent="1" source="nGg8Ksaf8CgA7mFmGYZu-28" target="nGg8Ksaf8CgA7mFmGYZu-45">
          <mxGeometry relative="1" as="geometry" />
        </mxCell>
        <mxCell id="nGg8Ksaf8CgA7mFmGYZu-28" value="kết quả = a-b" style="rounded=0;whiteSpace=wrap;html=1;" vertex="1" parent="1">
          <mxGeometry x="955" y="540" width="120" height="60" as="geometry" />
        </mxCell>
        <mxCell id="nGg8Ksaf8CgA7mFmGYZu-48" value="" style="edgeStyle=orthogonalEdgeStyle;rounded=0;orthogonalLoop=1;jettySize=auto;html=1;" edge="1" parent="1" source="nGg8Ksaf8CgA7mFmGYZu-29" target="nGg8Ksaf8CgA7mFmGYZu-45">
          <mxGeometry relative="1" as="geometry" />
        </mxCell>
        <mxCell id="nGg8Ksaf8CgA7mFmGYZu-29" value="kết quả = a*b" style="rounded=0;whiteSpace=wrap;html=1;" vertex="1" parent="1">
          <mxGeometry x="1095" y="540" width="120" height="60" as="geometry" />
        </mxCell>
        <mxCell id="nGg8Ksaf8CgA7mFmGYZu-49" value="" style="edgeStyle=orthogonalEdgeStyle;rounded=0;orthogonalLoop=1;jettySize=auto;html=1;" edge="1" parent="1" source="nGg8Ksaf8CgA7mFmGYZu-30" target="nGg8Ksaf8CgA7mFmGYZu-45">
          <mxGeometry relative="1" as="geometry" />
        </mxCell>
        <mxCell id="nGg8Ksaf8CgA7mFmGYZu-30" value="kết quả = a/b" style="rounded=0;whiteSpace=wrap;html=1;" vertex="1" parent="1">
          <mxGeometry x="1240" y="540" width="120" height="60" as="geometry" />
        </mxCell>
        <mxCell id="nGg8Ksaf8CgA7mFmGYZu-53" value="" style="edgeStyle=orthogonalEdgeStyle;rounded=0;orthogonalLoop=1;jettySize=auto;html=1;entryX=1;entryY=0.5;entryDx=0;entryDy=0;" edge="1" parent="1" source="nGg8Ksaf8CgA7mFmGYZu-42" target="nGg8Ksaf8CgA7mFmGYZu-50">
          <mxGeometry relative="1" as="geometry">
            <mxPoint x="1455" y="810" as="targetPoint" />
          </mxGeometry>
        </mxCell>
        <mxCell id="nGg8Ksaf8CgA7mFmGYZu-42" value="nhập dấu khác{+;-;*;/}" style="rhombus;whiteSpace=wrap;html=1;" vertex="1" parent="1">
          <mxGeometry x="1380" y="420" width="150" height="80" as="geometry" />
        </mxCell>
        <mxCell id="nGg8Ksaf8CgA7mFmGYZu-51" value="" style="edgeStyle=orthogonalEdgeStyle;rounded=0;orthogonalLoop=1;jettySize=auto;html=1;" edge="1" parent="1" source="nGg8Ksaf8CgA7mFmGYZu-45" target="nGg8Ksaf8CgA7mFmGYZu-50">
          <mxGeometry relative="1" as="geometry" />
        </mxCell>
        <mxCell id="nGg8Ksaf8CgA7mFmGYZu-45" value="in ra kết quả" style="shape=parallelogram;perimeter=parallelogramPerimeter;whiteSpace=wrap;html=1;fixedSize=1;" vertex="1" parent="1">
          <mxGeometry x="830" y="650" width="510" height="60" as="geometry" />
        </mxCell>
        <mxCell id="nGg8Ksaf8CgA7mFmGYZu-50" value="end" style="ellipse;whiteSpace=wrap;html=1;" vertex="1" parent="1">
          <mxGeometry x="1025" y="760" width="120" height="80" as="geometry" />
        </mxCell>
        <mxCell id="nGg8Ksaf8CgA7mFmGYZu-54" value="true" style="text;html=1;align=center;verticalAlign=middle;resizable=0;points=[];autosize=1;strokeColor=none;fillColor=none;" vertex="1" parent="1">
          <mxGeometry x="1270" y="738" width="40" height="30" as="geometry" />
        </mxCell>
        <mxCell id="nGg8Ksaf8CgA7mFmGYZu-55" value="true" style="text;html=1;align=center;verticalAlign=middle;resizable=0;points=[];autosize=1;strokeColor=none;fillColor=none;" vertex="1" parent="1">
          <mxGeometry x="880" y="488" width="40" height="30" as="geometry" />
        </mxCell>
        <mxCell id="nGg8Ksaf8CgA7mFmGYZu-56" value="true" style="text;html=1;align=center;verticalAlign=middle;resizable=0;points=[];autosize=1;strokeColor=none;fillColor=none;" vertex="1" parent="1">
          <mxGeometry x="1020" y="488" width="40" height="30" as="geometry" />
        </mxCell>
        <mxCell id="nGg8Ksaf8CgA7mFmGYZu-57" value="true" style="text;html=1;align=center;verticalAlign=middle;resizable=0;points=[];autosize=1;strokeColor=none;fillColor=none;" vertex="1" parent="1">
          <mxGeometry x="1160" y="498" width="40" height="30" as="geometry" />
        </mxCell>
        <mxCell id="nGg8Ksaf8CgA7mFmGYZu-58" value="true" style="text;html=1;align=center;verticalAlign=middle;resizable=0;points=[];autosize=1;strokeColor=none;fillColor=none;" vertex="1" parent="1">
          <mxGeometry x="1310" y="488" width="40" height="30" as="geometry" />
        </mxCell>
      </root>
    </mxGraphModel>
  </diagram>
</mxfile>
